<?xml version="1.0" standalone="no"?>
<!DOCTYPE svg PUBLIC "-//W3C//DTD SVG 20010904//EN"
 "http://www.w3.org/TR/2001/REC-SVG-20010904/DTD/svg10.dtd">
<svg version="1.0" xmlns="http://www.w3.org/2000/svg"
 width="567.000000pt" height="567.000000pt" viewBox="0 0 567.000000 567.000000"
 preserveAspectRatio="xMidYMid meet">
<metadata>
Created by potrace 1.11, written by Peter Selinger 2001-2013
</metadata>
<g transform="translate(0.000000,567.000000) scale(0.100000,-0.100000)"
fill="#000000" stroke="none">
<path d="M1150 3060 l0 -1490 245 0 245 0 0 -245 0 -245 245 0 245 0 0 245 0
245 250 0 250 0 0 250 0 250 250 0 250 0 0 -250 0 -250 250 0 250 0 0 -245 0
-245 245 0 245 0 0 245 0 245 250 0 250 0 0 1490 0 1490 -495 0 -495 0 0 -995
0 -995 -250 0 -250 0 0 995 0 995 -245 0 -245 0 0 -995 0 -995 -252 2 -253 3
-3 993 -2 992 -490 0 -490 0 0 -1490z"/>
</g>
</svg>
